<svg width="300" height="300" viewBox="0 0 300 300" fill="none" xmlns="http://www.w3.org/2000/svg">
<path d="M25.863 226.515C43.9766 225.93 58.3629 218.3 69.2176 204.505C71.8255 201.191 75.2173 198.771 77.9455 195.588C80.243 192.907 81.1841 189.672 83.0683 186.765C86.4412 181.561 89.1824 176.093 91.227 170.163C96.6868 154.33 97.9733 137.658 101.852 121.496C103.361 115.211 105.959 109.044 106.785 102.617C107.502 97.0413 107.468 93.4751 110.343 88.6244C117.887 75.8935 130.466 70.6378 145.017 72.8764C151.766 73.9146 157.501 75.981 162.093 80.9401C169.203 88.6184 173.324 99.6669 177.414 109.211C184.065 124.73 189.178 141.69 194.016 157.878C196.209 165.216 197.329 172.072 201.368 178.701C204.646 184.079 208.426 188.394 212.895 192.789C221.799 201.547 231.349 209.661 240.454 218.214C245.765 223.203 251.399 228.638 257.72 232.397C266.18 237.427 277.654 236.667 287.129 237.614" stroke="#FF8C90" stroke-width="3" stroke-linecap="round"/>
<path d="M106.975 95.8818C99.0177 92.8978 85.6452 90.9817 78.4672 96.8305C72.256 101.891 72.0778 107.104 75.4315 113.812C78.6325 120.214 84.2412 122.511 90.9423 124.058C93.3112 124.604 104.415 126.619 96.3498 126.619C89.5901 126.619 82.6551 127.981 77.6609 132.975C74.6547 135.981 73.5088 143.592 72.8226 147.537C72.0403 152.036 71.0819 156.955 72.6329 161.435C73.4987 163.937 79.5503 161.987 81.3607 161.625" stroke="#FF8C90" stroke-width="3" stroke-linecap="round"/>
<path d="M126.613 101.858C126.613 110.541 126.589 120.131 128.984 128.516C129.855 131.561 129.04 134.956 130.882 137.719" stroke="#FF8C90" stroke-width="3" stroke-linecap="round"/>
<path d="M150.52 101.005C151.874 112.521 155.642 124.42 155.642 136.011" stroke="#FF8C90" stroke-width="3" stroke-linecap="round"/>
<path d="M216 4C212.137 4 205.068 7.58328 201.611 9.44444C197.214 11.812 194.817 16.3293 192.5 20.5C190.307 24.4471 188 29.9383 188 34.5C188 38.0542 183.96 40.6093 185.056 44.4444C185.264 45.1721 190.639 48.0835 191.778 49.2222C195.234 52.6783 205.66 33.0245 207.778 29C208.627 27.3869 209.771 25.3836 211.222 24.2222C212.819 22.9446 212.397 22.3125 213.778 20.7778C216.71 17.5197 217.638 12.0867 219 8" stroke="#FF8C90" stroke-width="3" stroke-linecap="round"/>
<path d="M221 9C221 14.3662 223.517 22.1208 228.556 25C234.601 28.4545 239.203 35.9612 242.222 42C243.159 43.8739 250.052 51.4884 252.5 50.9444C257.003 49.9439 262 43.2552 262 39C262 33.7568 259.933 28.88 257.5 24.5C254.263 18.6728 255.581 13.5487 249 10.7778C244.211 8.76121 240.951 7 235.5 7C230.667 7 225.833 7 221 7" stroke="#FF8C90" stroke-width="3" stroke-linecap="round"/>
<path d="M203.021 39C196.175 39 196.058 44.8535 196.058 53.2633C196.058 57.6688 195.928 62.1157 196.058 66.518C196.442 79.5306 195.585 93.2803 197.826 106.426C199.041 113.554 197.018 121.132 198.821 128.182C199.996 132.777 201.759 138.137 202.027 143.021C203.012 161.005 219.388 167.37 231.76 167.37C235.353 167.37 238.889 168.666 242.316 168.666C243.287 168.666 244.718 170.794 245.577 169.675C246.536 168.425 245.608 163.54 245.3 162.255C242.639 151.156 241.818 136.917 241.818 125.372C241.818 119.066 242.442 111.986 241.321 105.85C239.357 95.0986 239.829 81.9615 239.829 70.8403C239.829 61.8525 240.999 51.3553 238.834 42.89" stroke="#FF8C90" stroke-width="3" stroke-linecap="round"/>
<path d="M209 50H228" stroke="#FF8C90" stroke-width="3" stroke-linecap="round"/>
<path d="M222 39C221.228 46.7186 218.747 54.2088 218 62.0556C217.794 64.2229 214.845 79.4227 218 81" stroke="#FF8C90" stroke-width="3" stroke-linecap="round"/>
<path d="M233 62C227.938 66.2831 221.679 71.6289 215 72C211.864 72.1742 207.007 75.2094 208.056 69.4444C209.356 62.2904 227 65.3002 227 73" stroke="#FF8C90" stroke-width="3" stroke-linecap="round"/>
<path d="M211 89C211 95.0046 206 101.127 206 107" stroke="#FF8C90" stroke-width="3" stroke-linecap="round"/>
<path d="M205 98C214.547 98 223.585 94 233 94" stroke="#FF8C90" stroke-width="3" stroke-linecap="round"/>
<path d="M217 105C221.443 105 223.968 105.656 228 107" stroke="#FF8C90" stroke-width="3" stroke-linecap="round"/>
<path d="M216 115H229" stroke="#FF8C90" stroke-width="3" stroke-linecap="round"/>
<path d="M210 123C210 129.345 209 135.96 209 142" stroke="#FF8C90" stroke-width="3" stroke-linecap="round"/>
<path d="M226 126C226 133.846 227 140.634 227 148.5C227 155.561 221.496 159.756 218 165" stroke="#FF8C90" stroke-width="3" stroke-linecap="round"/>
<path d="M246 79C249.469 79 252.158 83.5956 256 84C256.214 84.0225 263.747 87.5979 260.5 85C258.808 83.6462 260.447 79 257.444 79C255.796 79 254.148 79 252.5 79C250.734 79 251.297 80.3516 250 81" stroke="#FF8C90" stroke-width="3" stroke-linecap="round"/>
<path d="M261 127C261 132.605 255.473 137.855 253.222 143C251.444 147.063 262 137.435 262 133" stroke="#FF8C90" stroke-width="3" stroke-linecap="round"/>
<path d="M250 169C250 170.549 255.55 179.005 256.778 177.778C257.619 176.936 257 173.162 257 172C257 169.352 255.173 170 253 170" stroke="#FF8C90" stroke-width="3" stroke-linecap="round"/>
<path d="M222 175C222 175.817 221.253 180.249 220.778 180.778C220.251 181.363 216.174 186 216.611 186C218.662 186 221.474 186.507 223.444 185.944C224.634 185.604 224 180.122 224 179" stroke="#FF8C90" stroke-width="3" stroke-linecap="round"/>
<path d="M180 67C179.696 72.1735 174.111 86.5713 174.111 81.3889C174.111 76.5721 180 76.6899 180 71" stroke="#FF8C90" stroke-width="3" stroke-linecap="round"/>
<path d="M182 108C184.243 110.523 182.71 115.161 182 118" stroke="#FF8C90" stroke-width="3" stroke-linecap="round"/>
</svg>
