<svg width="300" height="300" viewBox="0 0 300 300" fill="none" xmlns="http://www.w3.org/2000/svg">
<path d="M25.8632 226.515C43.9767 225.93 58.363 218.3 69.2177 204.505C71.8257 201.191 75.2174 198.771 77.9456 195.588C80.2431 192.907 81.1842 189.672 83.0684 186.765C86.4413 181.561 89.1825 176.093 91.2271 170.163C96.6869 154.33 97.9734 137.658 101.852 121.496C103.361 115.211 105.959 109.044 106.785 102.617C107.502 97.0413 107.468 93.4751 110.343 88.6244C117.887 75.8935 130.467 70.6378 145.017 72.8764C151.766 73.9146 157.501 75.981 162.093 80.9401C169.203 88.6184 173.324 99.6669 177.414 109.211C184.066 124.73 189.179 141.69 194.016 157.878C196.209 165.216 197.329 172.072 201.369 178.701C204.646 184.079 208.426 188.394 212.895 192.789C221.799 201.547 231.349 209.661 240.454 218.214C245.765 223.203 251.399 228.638 257.72 232.397C266.18 237.427 277.654 236.667 287.129 237.614" stroke="#FF8C90" stroke-width="3" stroke-linecap="round"/>
<path d="M106.975 95.8818C99.0178 92.8978 85.6454 90.9817 78.4674 96.8305C72.2561 101.891 72.0779 107.104 75.4316 113.812C78.6327 120.214 84.2413 122.511 90.9425 124.058C93.3113 124.604 104.415 126.619 96.3499 126.619C89.5902 126.619 82.6553 127.981 77.661 132.975C74.6548 135.981 73.5089 143.592 72.8227 147.537C72.0404 152.036 71.082 156.955 72.633 161.435C73.4988 163.937 79.5504 161.987 81.3608 161.625" stroke="#FF8C90" stroke-width="3" stroke-linecap="round"/>
<path d="M126.613 101.858C126.613 110.541 126.589 120.131 128.984 128.516C129.854 131.561 129.04 134.956 130.882 137.719" stroke="#FF8C90" stroke-width="3" stroke-linecap="round"/>
<path d="M150.519 101.005C151.874 112.521 155.642 124.42 155.642 136.011" stroke="#FF8C90" stroke-width="3" stroke-linecap="round"/>
<path d="M197 88C197 83.8308 198.862 71.6662 203.444 70C205.614 69.211 208.212 66.547 210.5 67.0556C218.372 68.8048 217 79.9549 217 85.7778C217 90.5513 215.964 94.9115 214.944 99.5C214.106 103.274 211.445 106.053 210.944 110.056C210.222 115.835 204.866 121.567 200 124" stroke="#FF8C90" stroke-width="3" stroke-linecap="round"/>
<path d="M195 90C194.354 84.1873 190.472 77.8404 187 73.5C184.933 70.9162 180.361 72.7507 180 76C179.49 80.5896 179 85.38 179 90C179 97.5222 179.858 104.944 183.5 111.5C186.576 117.036 192.267 124 199 124" stroke="#FF8C90" stroke-width="3" stroke-linecap="round"/>
<path d="M97 185C102.718 184.365 106.34 178 112 178" stroke="#FF8C90" stroke-width="3" stroke-linecap="round"/>
<path d="M102 171V191" stroke="#FF8C90" stroke-width="3" stroke-linecap="round"/>
<path d="M93 194C95.5013 194 96.6837 192.098 99.2222 192C101.548 191.911 103.557 191 106 191" stroke="#FF8C90" stroke-width="3" stroke-linecap="round"/>
<path d="M117 177C119.407 175.074 125 173.203 125 177.5C125 181 125 184.5 125 188" stroke="#FF8C90" stroke-width="3" stroke-linecap="round"/>
<path d="M117 180C117 182.316 113.72 190.14 112 191" stroke="#FF8C90" stroke-width="3" stroke-linecap="round"/>
<path d="M112 200C112.282 202.821 115 203.131 115 206" stroke="#FF8C90" stroke-width="3" stroke-linecap="round"/>
<path d="M113 201C117.789 201 121.81 199 126.5 199C134.027 199 126.055 203.836 125 207" stroke="#FF8C90" stroke-width="3" stroke-linecap="round"/>
<path d="M117 209C118.593 207.584 120.921 207 123 207" stroke="#FF8C90" stroke-width="3" stroke-linecap="round"/>
<path d="M99 194C98.3207 202.152 97 210.969 97 219" stroke="#FF8C90" stroke-width="3" stroke-linecap="round"/>
<path d="M98 210C101.507 210 104.376 210.624 107 208" stroke="#FF8C90" stroke-width="3" stroke-linecap="round"/>
<path d="M90 209C90 213.813 89.6209 217.379 86 221" stroke="#FF8C90" stroke-width="3" stroke-linecap="round"/>
<path d="M89 217C95.5983 217 103.524 217.298 109.778 219.222C118.103 221.784 125.05 227 134 227" stroke="#FF8C90" stroke-width="3" stroke-linecap="round"/>
<path d="M148 184C151.166 183.604 153.588 177.294 156.5 176C159.434 174.696 158.467 171 162 171" stroke="#FF8C90" stroke-width="3" stroke-linecap="round"/>
<path d="M152 166C152 174.992 151.252 183.757 154 192" stroke="#FF8C90" stroke-width="3" stroke-linecap="round"/>
<path d="M137 204C141.257 203.527 149.361 198.839 152.556 196C156.264 192.704 162.727 193.137 167 191" stroke="#FF8C90" stroke-width="3" stroke-linecap="round"/>
<path d="M143 219C143 222.253 147.213 230.606 150 232" stroke="#FF8C90" stroke-width="3" stroke-linecap="round"/>
<path d="M144 223C149.458 223 152.903 218.26 157.944 217C162.224 215.93 167.445 214.318 171.444 212.5C172.943 211.819 174.557 212.419 176 211.778C179.7 210.134 177.095 214.605 176.444 216.556C174.689 221.821 172.333 226.668 171 232" stroke="#FF8C90" stroke-width="3" stroke-linecap="round"/>
<path d="M147 234C153.264 234 159.582 233 166 233" stroke="#FF8C90" stroke-width="3" stroke-linecap="round"/>
<path d="M239 142C241.695 141.701 235.442 120.769 243.444 123.056C245.722 123.706 245.836 128.907 246.056 130.556C246.548 134.246 249 137.393 249 141.222C249 145.066 249.142 148.937 249 152.778C248.867 156.361 246.169 159.229 245 162.444C243.946 165.343 242.949 168.212 241.556 171C238.897 176.317 232.206 162.403 230 160.778C227.969 159.281 225.319 155.158 223.778 153C220.062 147.798 218 140.919 218 134.556C218 129.339 218.063 119.531 224 117.222C231.311 114.379 231.115 142 238 142" stroke="#FF8C90" stroke-width="3" stroke-linecap="round"/>
</svg>
