<svg width="300" height="300" viewBox="0 0 300 300" fill="none" xmlns="http://www.w3.org/2000/svg">
<path d="M25.8631 226.515C43.9767 225.93 58.363 218.3 69.2177 204.505C71.8256 201.191 75.2174 198.771 77.9456 195.588C80.2431 192.907 81.1842 189.672 83.0684 186.765C86.4413 181.561 89.1825 176.093 91.2271 170.163C96.6869 154.33 97.9734 137.658 101.852 121.496C103.361 115.211 105.959 109.044 106.785 102.617C107.502 97.0413 107.468 93.4751 110.343 88.6244C117.887 75.8935 130.467 70.6378 145.017 72.8764C151.766 73.9146 157.501 75.981 162.093 80.9401C169.203 88.6184 173.324 99.6669 177.414 109.211C184.066 124.73 189.179 141.69 194.016 157.878C196.209 165.216 197.329 172.072 201.369 178.701C204.646 184.079 208.426 188.394 212.895 192.789C221.799 201.547 231.349 209.661 240.454 218.214C245.765 223.203 251.399 228.638 257.72 232.397C266.18 237.427 277.654 236.667 287.129 237.614" stroke="#FF8C90" stroke-width="3" stroke-linecap="round"/>
<path d="M106.975 95.8818C99.0178 92.8978 85.6454 90.9817 78.4674 96.8305C72.2561 101.891 72.0779 107.104 75.4316 113.812C78.6327 120.214 84.2413 122.511 90.9425 124.058C93.3113 124.604 104.415 126.619 96.3499 126.619C89.5902 126.619 82.6553 127.981 77.661 132.975C74.6548 135.981 73.5089 143.592 72.8227 147.537C72.0404 152.036 71.082 156.955 72.633 161.435C73.4988 163.937 79.5504 161.987 81.3608 161.625" stroke="#FF8C90" stroke-width="3" stroke-linecap="round"/>
<path d="M126.613 101.858C126.613 110.541 126.589 120.131 128.984 128.516C129.854 131.561 129.04 134.956 130.882 137.719" stroke="#FF8C90" stroke-width="3" stroke-linecap="round"/>
<path d="M150.519 101.005C151.874 112.521 155.642 124.42 155.642 136.011" stroke="#FF8C90" stroke-width="3" stroke-linecap="round"/>
<path d="M103 179C103 184.84 106 189.254 106 195" stroke="#FF8C90" stroke-width="3" stroke-linecap="round"/>
<path d="M102 183C110.593 183 119.185 183 127.778 183C131.359 183 132 182.82 132 186.556C132 189.914 131.035 192.895 130 196" stroke="#FF8C90" stroke-width="3" stroke-linecap="round"/>
<path d="M102 199C101.22 199.087 96.4444 200.919 96.4444 201.778C96.4444 202.991 98.7873 201.035 100 201C101.922 200.945 103.854 201 105.778 201C113.78 201 120.346 196 128 196" stroke="#FF8C90" stroke-width="3" stroke-linecap="round"/>
<path d="M122 162C121.471 167.815 117.311 173.09 117 179C116.814 182.534 117 186.129 117 189.667C117 198.979 115 207.87 115 217" stroke="#FF8C90" stroke-width="3" stroke-linecap="round"/>
<path d="M148 174C151.487 174 154.612 172 158 172C161.414 172 165.176 171.883 168 170" stroke="#FF8C90" stroke-width="3" stroke-linecap="round"/>
<path d="M159 162V182" stroke="#FF8C90" stroke-width="3" stroke-linecap="round"/>
<path d="M141 187C149.705 186.585 158.188 186 166.944 186C169.296 186 171.648 186 174 186C176.976 186 177.632 183.789 180 183" stroke="#FF8C90" stroke-width="3" stroke-linecap="round"/>
<path d="M147 201C147 204.603 146.534 208.201 148 211.5C149.618 215.14 151 217.955 151 222" stroke="#FF8C90" stroke-width="3" stroke-linecap="round"/>
<path d="M149 207C158.328 207 167.289 206 176.5 206C181.117 206 179.028 216.886 176 218.778C173.444 220.375 173.624 223.105 170.556 224.5C168.029 225.649 164.278 225 161.5 225C155.826 225 151.491 222 146 222" stroke="#FF8C90" stroke-width="3" stroke-linecap="round"/>
<path d="M188 96C188 99.0222 188.054 113.913 191.444 112.944C194.512 112.068 194 108.473 194 106C194 102.247 192.243 102.081 189 101" stroke="#FF8C90" stroke-width="3" stroke-linecap="round"/>
<path d="M184 93C184 79.3561 182.105 63.656 184.056 50C184.729 45.2831 185 40.8637 185 36C185 34.8008 184.355 31.1858 185.222 30.2222C189.3 25.6912 200.428 24.2677 205.944 24.0555C207.036 24.0136 226.886 23.2572 225.889 25.5C225.277 26.8769 223.005 27.4373 221.778 28C217.231 30.0839 213.847 33.5881 210.389 37.1111C206.091 41.4904 195.847 47.2369 193.778 53.4444C189.056 67.6096 183 81.0157 183 96" stroke="#FF8C90" stroke-width="3" stroke-linecap="round"/>
<path d="M205 116C205.285 118.561 206.028 121.468 206.5 124.111C207.205 128.059 206 130.817 206 134.5C206 135.914 208.245 138.894 208.944 136.444C209.436 134.725 209 132.289 209 130.5C209 127.238 212 124.376 212 120.778C212 115.298 204.949 114.367 201 117" stroke="#FF8C90" stroke-width="3" stroke-linecap="round"/>
<path d="M206 106C206 88.6903 205.704 67.8727 213.222 52C215.625 46.9273 218.335 41.6899 224.444 39.9445C226.908 39.2406 227.705 37.14 231.222 38.2222C233.951 39.0618 236.484 40.1427 239.056 41C245.177 43.0404 248.572 48.5708 243.444 54C239.514 58.1619 235.691 62.0482 232.778 67C228.736 73.8712 227.982 83.425 223.444 90.5556C221.835 93.0845 219.881 95.6746 217.778 97.7778C216.015 99.5403 215.966 101.544 214.444 103.5C212.596 105.877 212.637 108.453 211.222 111C208.945 115.098 206.22 111.11 204 110" stroke="#FF8C90" stroke-width="3" stroke-linecap="round"/>
</svg>
