<svg width="300" height="300" viewBox="0 0 300 300" fill="none" xmlns="http://www.w3.org/2000/svg">
<path d="M25.8632 226.515C43.9767 225.93 58.363 218.3 69.2177 204.505C71.8257 201.191 75.2174 198.771 77.9456 195.588C80.2431 192.907 81.1842 189.672 83.0684 186.765C86.4413 181.561 89.1825 176.093 91.2271 170.163C96.6869 154.33 97.9734 137.658 101.852 121.496C103.361 115.211 105.959 109.044 106.785 102.617C107.502 97.0413 107.468 93.4751 110.343 88.6244C117.887 75.8935 130.467 70.6378 145.017 72.8764C151.766 73.9146 157.501 75.981 162.093 80.9401C169.203 88.6184 173.324 99.6669 177.414 109.211C184.066 124.73 189.179 141.69 194.016 157.878C196.209 165.216 197.329 172.072 201.369 178.701C204.646 184.079 208.426 188.394 212.895 192.789C221.799 201.547 231.349 209.661 240.454 218.214C245.765 223.203 251.399 228.638 257.72 232.397C266.18 237.427 277.654 236.667 287.129 237.614" stroke="#FF8C90" stroke-width="3" stroke-linecap="round"/>
<path d="M106.975 95.8818C99.0178 92.8978 85.6454 90.9817 78.4674 96.8305C72.2561 101.891 72.0779 107.104 75.4316 113.812C78.6327 120.214 84.2413 122.511 90.9425 124.058C93.3113 124.604 104.415 126.619 96.3499 126.619C89.5902 126.619 82.6553 127.981 77.661 132.975C74.6548 135.981 73.5089 143.592 72.8227 147.537C72.0404 152.036 71.082 156.955 72.633 161.435C73.4988 163.937 79.5504 161.987 81.3608 161.625" stroke="#FF8C90" stroke-width="3" stroke-linecap="round"/>
<path d="M126.613 101.858C126.613 110.541 126.589 120.131 128.984 128.516C129.855 131.561 129.04 134.956 130.882 137.719" stroke="#FF8C90" stroke-width="3" stroke-linecap="round"/>
<path d="M150.519 101.005C151.874 112.521 155.642 124.42 155.642 136.011" stroke="#FF8C90" stroke-width="3" stroke-linecap="round"/>
<path d="M184 109C184 106.406 186.317 102.87 188 101C190.343 98.3962 191.42 92.7282 194.444 91C197.64 89.1742 197.964 81.0455 200.222 78.2222C201.03 77.213 203.631 73.3637 204.222 73.7778C205.948 74.9857 213.845 76.2237 212.722 79.7778C211.326 84.1979 206.375 90.5407 202.778 93.7778C200.275 96.0299 199.486 98.8751 197.444 101.5C193.972 105.964 190.789 109.211 187 113C183.432 116.568 175.875 110.834 184.5 107C187.928 105.476 190.637 100.496 193.444 97.9444C196.088 95.5415 198.113 90.2886 200 87.2222C201.96 84.037 203.719 80.3514 206 77.5C208.2 74.7497 205.542 80.1875 205 81" stroke="#FF8C90" stroke-width="3" stroke-linecap="round"/>
<path d="M201 74C194.987 74 195.307 66.9984 192 62.2222C188.762 57.5454 180 53.303 180 47C180 41.657 177.577 37.1413 180.5 31.9444C183.895 25.9091 185.972 18.0284 191 13C200.429 3.57071 210.835 3 223.556 3C237.484 3 254.924 2.55175 266.5 11.5556C278.984 21.2653 282.3 35.8422 285.222 50.7778C287.342 61.6125 286.442 73.7144 286 84.7778C285.962 85.7246 282.703 89.3708 281.778 90C279.027 91.8704 275.49 91.9438 273 93.5C268.931 96.0431 258.351 94 253.444 94C245.472 94 238.725 92.5434 231 90.7778C222.941 88.9356 209 85.5387 209 75" stroke="#FF8C90" stroke-width="3" stroke-linecap="round"/>
<path d="M198 21C195.537 21 188.148 21 190.611 21C193.074 21 195.537 21 198 21ZM198 21C203.136 21 208.63 22 214 22" stroke="#FF8C90" stroke-width="3" stroke-linecap="round"/>
<path d="M190 30C184.005 30.6662 196.011 30 198 30C202.611 30 204.86 32.6201 209 34" stroke="#FF8C90" stroke-width="3" stroke-linecap="round"/>
<path d="M207 15C204.666 15 200 13.6658 200 16C200 20.1852 200 24.3704 200 28.5556C200 35.1877 200.405 44.8516 194.5 49.4444C190.876 52.2631 191 49.674 191 46.5C191 43.0869 191.578 41 195.556 41C200.226 41 200.758 41.5202 203 45.4444C204.159 47.4728 206 48.4164 206 51" stroke="#FF8C90" stroke-width="3" stroke-linecap="round"/>
<path d="M221 40C226.287 40 244 27.9663 244 40.5C244 52.0834 233.989 55 224 55" stroke="#FF8C90" stroke-width="3" stroke-linecap="round"/>
<path d="M255 42C255 49.6182 255.443 59.6717 253 67" stroke="#FF8C90" stroke-width="3" stroke-linecap="round"/>
<path d="M270 46C270 53.6977 267.837 63.2153 264.444 70C261.151 76.5866 255.164 85.8905 249 90" stroke="#FF8C90" stroke-width="3" stroke-linecap="round"/>
</svg>
