<svg width="300" height="300" viewBox="0 0 300 300" fill="none" xmlns="http://www.w3.org/2000/svg">
<path d="M25.8632 226.515C43.9767 225.93 58.363 218.3 69.2177 204.505C71.8257 201.191 75.2174 198.771 77.9456 195.588C80.2431 192.907 81.1842 189.672 83.0684 186.765C86.4413 181.561 89.1825 176.093 91.2271 170.163C96.6869 154.33 97.9734 137.658 101.852 121.496C103.361 115.211 105.959 109.044 106.785 102.617C107.502 97.0413 107.468 93.4751 110.343 88.6244C117.887 75.8935 130.467 70.6378 145.017 72.8764C151.766 73.9146 157.501 75.981 162.093 80.9401C169.203 88.6184 173.324 99.6669 177.414 109.211C184.066 124.73 189.179 141.69 194.016 157.878C196.209 165.216 197.329 172.072 201.369 178.701C204.646 184.079 208.426 188.394 212.895 192.789C221.799 201.547 231.349 209.661 240.454 218.214C245.765 223.203 251.399 228.638 257.72 232.397C266.18 237.427 277.654 236.667 287.129 237.614" stroke="#FF8C90" stroke-width="3" stroke-linecap="round"/>
<path d="M106.975 95.8818C99.0178 92.8978 85.6454 90.9817 78.4674 96.8305C72.2561 101.891 72.0779 107.104 75.4316 113.812C78.6327 120.214 84.2413 122.511 90.9425 124.058C93.3113 124.604 104.415 126.619 96.3499 126.619C89.5902 126.619 82.6553 127.981 77.661 132.975C74.6548 135.981 73.5089 143.592 72.8227 147.537C72.0404 152.036 71.082 156.955 72.633 161.435C73.4988 163.937 79.5504 161.987 81.3608 161.625" stroke="#FF8C90" stroke-width="3" stroke-linecap="round"/>
<path d="M112 119C118.829 119 125.369 118 132 118" stroke="#FF8C90" stroke-width="3" stroke-linecap="round"/>
<path d="M144 119C148.439 119 152.198 122 156.778 122C161.308 122 163.852 121.383 168 120" stroke="#FF8C90" stroke-width="3" stroke-linecap="round"/>
<path d="M186 65C189.515 65.3515 192.353 66.7855 196 67C197 67.0588 187.655 80.8002 185.556 83.5C182.193 87.8235 187.077 84.31 189.056 83.4444C193.579 81.4652 197.009 80 202 80" stroke="#FF8C90" stroke-width="3" stroke-linecap="round"/>
<path d="M202 61C206.692 60.7068 211.906 58.2413 216.444 56.9444C218.15 56.4572 219.532 55.8158 217.444 58.5C215.669 60.7822 215.054 62.5896 213.778 65C213.164 66.1594 211.731 68.719 210.778 69.7778C209.06 71.6863 207.483 71 211.444 71C217.537 71 221.878 66 228 66" stroke="#FF8C90" stroke-width="3" stroke-linecap="round"/>
<path d="M231 33C236.506 33 240.164 29.2134 245 27.2222C246.783 26.488 241.417 36.1232 240.778 37.2222C238.974 40.3243 237.374 43.3289 235 46C232.921 48.339 231.751 51.8046 229.556 54C225.079 58.4768 234.845 54.2532 237.222 53.7778C242.289 52.7644 252.813 52.7807 256 48" stroke="#FF8C90" stroke-width="3" stroke-linecap="round"/>
</svg>
