<svg width="300" height="300" viewBox="0 0 300 300" fill="none" xmlns="http://www.w3.org/2000/svg">
<path d="M25.863 226.515C43.9766 225.93 58.3629 218.3 69.2176 204.505C71.8255 201.191 75.2173 198.771 77.9455 195.588C80.243 192.907 81.1841 189.672 83.0683 186.765C86.4412 181.561 89.1824 176.093 91.227 170.163C96.6868 154.33 97.9733 137.658 101.852 121.496C103.361 115.211 105.959 109.044 106.785 102.617C107.502 97.0413 107.468 93.4751 110.343 88.6244C117.887 75.8935 130.466 70.6378 145.017 72.8764C151.766 73.9146 157.501 75.981 162.093 80.9401C169.203 88.6184 173.324 99.6669 177.414 109.211C184.065 124.73 189.178 141.69 194.016 157.878C196.209 165.216 197.329 172.072 201.368 178.701C204.646 184.079 208.426 188.394 212.895 192.789C221.799 201.547 231.349 209.661 240.454 218.214C245.765 223.203 251.399 228.638 257.72 232.397C266.18 237.427 277.654 236.667 287.129 237.614" stroke="#FF8C90" stroke-width="3" stroke-linecap="round"/>
<path d="M106.975 95.8818C99.0177 92.8978 85.6452 90.9817 78.4672 96.8305C72.256 101.891 72.0778 107.104 75.4315 113.812C78.6325 120.214 84.2412 122.511 90.9423 124.058C93.3112 124.604 104.415 126.619 96.3498 126.619C89.5901 126.619 82.6551 127.981 77.6609 132.975C74.6547 135.981 73.5088 143.592 72.8226 147.537C72.0403 152.036 71.0819 156.955 72.6329 161.435C73.4987 163.937 79.5503 161.987 81.3607 161.625" stroke="#FF8C90" stroke-width="3" stroke-linecap="round"/>
<path d="M116.032 113.777C116.032 113.222 115.96 111.559 116.032 112.111C116.22 113.55 117.074 114.602 117.588 115.914C117.975 116.904 122.795 126.005 122.806 126C123.94 125.517 125.242 123.452 126.068 122.624C127.641 121.046 129.604 118.401 131.613 117.26C132.762 116.608 134.381 115.986 135 114.931" stroke="#FF8C90" stroke-width="3" stroke-linecap="round"/>
<path d="M144.538 112.687C146.934 112.954 147.165 116.045 149.132 116.832C151.071 117.607 153.467 119.756 155.099 121.026C156.291 121.953 157.493 122.747 158.569 123.822C159.539 124.792 159.527 125.482 160.317 124.072C162.563 120.06 164.982 115.838 167.007 111.789" stroke="#FF8C90" stroke-width="3" stroke-linecap="round"/>
</svg>
