<svg width="300" height="300" viewBox="0 0 300 300" fill="none" xmlns="http://www.w3.org/2000/svg">
<path d="M25.8632 226.515C43.9767 225.93 58.363 218.3 69.2177 204.505C71.8257 201.191 75.2174 198.771 77.9456 195.588C80.2431 192.907 81.1842 189.672 83.0684 186.765C86.4413 181.561 89.1825 176.093 91.2271 170.163C96.6869 154.33 97.9734 137.658 101.852 121.496C103.361 115.211 105.959 109.044 106.785 102.617C107.502 97.0413 107.468 93.4751 110.343 88.6244C117.887 75.8935 130.467 70.6378 145.017 72.8764C151.766 73.9146 157.501 75.981 162.093 80.9401C169.203 88.6184 173.324 99.6669 177.414 109.211C184.066 124.73 189.179 141.69 194.016 157.878C196.209 165.216 197.329 172.072 201.369 178.701C204.646 184.079 208.426 188.394 212.895 192.789C221.799 201.547 231.349 209.661 240.454 218.214C245.765 223.203 251.399 228.638 257.72 232.397C266.18 237.427 277.654 236.667 287.129 237.614" stroke="#FF8C90" stroke-width="3" stroke-linecap="round"/>
<path d="M106.975 95.8818C99.0178 92.8978 85.6454 90.9817 78.4674 96.8305C72.2561 101.891 72.0779 107.104 75.4316 113.812C78.6327 120.214 84.2413 122.511 90.9425 124.058C93.3113 124.604 104.415 126.619 96.3499 126.619C89.5902 126.619 82.6553 127.981 77.661 132.975C74.6548 135.981 73.5089 143.592 72.8227 147.537C72.0404 152.036 71.082 156.955 72.633 161.435C73.4988 163.937 79.5504 161.987 81.3608 161.625" stroke="#FF8C90" stroke-width="3" stroke-linecap="round"/>
<path d="M126.613 101.858C126.613 110.541 126.589 120.131 128.984 128.516C129.855 131.561 129.04 134.956 130.882 137.719" stroke="#FF8C90" stroke-width="3" stroke-linecap="round"/>
<path d="M150.519 101.005C151.874 112.521 155.642 124.42 155.642 136.011" stroke="#FF8C90" stroke-width="3" stroke-linecap="round"/>
<path d="M145 232.089C154.845 231.778 162.664 227.714 168.564 220.368C169.981 218.603 171.824 217.313 173.307 215.618C174.556 214.191 175.067 212.468 176.092 210.92C177.925 208.148 179.415 205.236 180.526 202.078C183.493 193.646 184.192 184.767 186.301 176.16C187.121 172.813 188.533 169.529 188.982 166.106C189.371 163.136 189.353 161.237 190.915 158.654C195.016 151.874 201.853 149.075 209.761 150.267C213.429 150.82 216.546 151.92 219.042 154.562C222.906 158.651 225.146 164.535 227.369 169.617C230.984 177.882 233.763 186.914 236.393 195.536C237.584 199.443 238.193 203.095 240.389 206.625C242.17 209.489 244.225 211.787 246.653 214.128C251.493 218.792 256.683 223.113 261.632 227.668C264.518 230.325 267.58 233.22 271.016 235.221C275.614 237.9 281.85 237.495 287 238" stroke="#FF8C90" stroke-width="3" stroke-linecap="round"/>
<path d="M189 162.513C184.701 160.928 177.477 159.91 173.6 163.017C170.244 165.705 170.148 168.474 171.96 172.037C173.689 175.437 176.719 176.658 180.339 177.479C181.619 177.769 187.617 178.84 183.26 178.84C179.608 178.84 175.862 179.563 173.164 182.216C171.54 183.813 170.921 187.855 170.55 189.951C170.128 192.341 169.61 194.954 170.448 197.334C170.916 198.662 174.185 197.627 175.163 197.434" stroke="#FF8C90" stroke-width="3" stroke-linecap="round"/>
<path d="M200 166C200 170.6 199.989 175.682 201.111 180.124C201.519 181.738 201.137 183.536 202 185" stroke="#FF8C90" stroke-width="3" stroke-linecap="round"/>
<path d="M213 165C213.793 171.251 216 177.709 216 184" stroke="#FF8C90" stroke-width="3" stroke-linecap="round"/>
<path d="M26 234.037C33.2797 233.828 39.0613 231.104 43.4237 226.178C44.4718 224.995 45.8349 224.131 46.9314 222.994C47.8547 222.037 48.233 220.882 48.9902 219.844C50.3457 217.986 51.4474 216.033 52.2691 213.916C54.4633 208.263 54.9804 202.31 56.5392 196.539C57.1455 194.295 58.1897 192.093 58.5218 189.798C58.8099 187.807 58.7963 186.534 59.9515 184.802C62.9835 180.256 68.039 178.38 73.8867 179.179C76.5989 179.55 78.904 180.288 80.7495 182.058C83.6067 184.8 85.2631 188.745 86.9069 192.153C89.5799 197.694 91.6347 203.749 93.579 209.53C94.4603 212.15 94.9102 214.598 96.5338 216.965C97.8508 218.885 99.3702 220.425 101.166 221.995C104.745 225.122 108.583 228.019 112.242 231.073C114.376 232.854 116.64 234.795 119.181 236.137C122.581 237.933 127.192 237.662 131 238" stroke="#FF8C90" stroke-width="3" stroke-linecap="round"/>
<path d="M59 187.022C55.6063 185.951 49.9031 185.263 46.8418 187.363C44.1928 189.179 44.1168 191.05 45.5471 193.457C46.9123 195.755 49.3043 196.579 52.1623 197.135C53.1726 197.331 57.9083 198.054 54.4685 198.054C51.5855 198.054 48.6279 198.543 46.4979 200.335C45.2158 201.414 44.7271 204.145 44.4344 205.562C44.1008 207.176 43.6921 208.942 44.3535 210.55C44.7228 211.447 47.3037 210.748 48.0758 210.618" stroke="#FF8C90" stroke-width="3" stroke-linecap="round"/>
<path d="M66 189C66 192.148 65.9887 195.624 67.1111 198.664C67.5187 199.768 67.1372 200.999 68 202" stroke="#FF8C90" stroke-width="3" stroke-linecap="round"/>
<path d="M76 189C76.529 193.277 78 197.696 78 202" stroke="#FF8C90" stroke-width="3" stroke-linecap="round"/>
</svg>
