<svg width="300" height="300" viewBox="0 0 300 300" fill="none" xmlns="http://www.w3.org/2000/svg">
<path d="M25.8631 226.515C43.9767 225.93 58.363 218.3 69.2177 204.505C71.8256 201.191 75.2174 198.771 77.9456 195.588C80.2431 192.907 81.1842 189.672 83.0684 186.765C86.4413 181.561 89.1825 176.093 91.2271 170.163C96.6869 154.33 97.9734 137.658 101.852 121.496C103.361 115.211 105.959 109.044 106.785 102.617C107.502 97.0413 107.468 93.4751 110.343 88.6244C117.887 75.8935 130.467 70.6378 145.017 72.8764C151.766 73.9146 157.501 75.981 162.093 80.9401C169.203 88.6184 173.324 99.6669 177.414 109.211C184.066 124.73 189.179 141.69 194.016 157.878C196.209 165.216 197.329 172.072 201.369 178.701C204.646 184.079 208.426 188.394 212.895 192.789C221.799 201.547 231.349 209.661 240.454 218.214C245.765 223.203 251.399 228.638 257.72 232.397C266.18 237.427 277.654 236.667 287.129 237.614" stroke="#FF8C90" stroke-width="3" stroke-linecap="round"/>
<path d="M106.975 95.8818C99.0178 92.8978 85.6454 90.9817 78.4674 96.8305C72.2561 101.891 72.0779 107.104 75.4316 113.812C78.6327 120.214 84.2413 122.511 90.9425 124.058C93.3113 124.604 104.415 126.619 96.3499 126.619C89.5902 126.619 82.6553 127.981 77.661 132.975C74.6548 135.981 73.5089 143.592 72.8227 147.537C72.0404 152.036 71.082 156.955 72.633 161.435C73.4988 163.937 79.5504 161.987 81.3608 161.625" stroke="#FF8C90" stroke-width="3" stroke-linecap="round"/>
<path d="M126.613 101.858C126.613 110.541 126.589 120.131 128.984 128.516C129.854 131.561 129.04 134.956 130.882 137.719" stroke="#FF8C90" stroke-width="3" stroke-linecap="round"/>
<path d="M150.519 101.005C151.874 112.521 155.642 124.42 155.642 136.011" stroke="#FF8C90" stroke-width="3" stroke-linecap="round"/>
</svg>
