<svg width="300" height="300" viewBox="0 0 300 300" fill="none" xmlns="http://www.w3.org/2000/svg">
<path d="M25.863 226.515C43.9766 225.93 58.3629 218.3 69.2176 204.505C71.8255 201.191 75.2173 198.771 77.9455 195.588C80.243 192.907 81.1841 189.672 83.0683 186.765C86.4412 181.561 89.1824 176.093 91.227 170.163C96.6868 154.33 97.9733 137.658 101.852 121.496C103.361 115.211 105.959 109.044 106.785 102.617C107.502 97.0413 107.468 93.4751 110.343 88.6244C117.887 75.8935 130.466 70.6378 145.017 72.8764C151.766 73.9146 157.501 75.981 162.093 80.9401C169.203 88.6184 173.324 99.6669 177.414 109.211C184.065 124.73 189.178 141.69 194.016 157.878C196.209 165.216 197.329 172.072 201.368 178.701C204.646 184.079 208.426 188.394 212.895 192.789C221.799 201.547 231.349 209.661 240.454 218.214C245.765 223.203 251.399 228.638 257.72 232.397C266.18 237.427 277.654 236.667 287.129 237.614" stroke="#FF8C90" stroke-width="3" stroke-linecap="round"/>
<path d="M106.975 95.8818C99.0177 92.8978 85.6452 90.9817 78.4672 96.8305C72.256 101.891 72.0778 107.104 75.4315 113.812C78.6325 120.214 84.2412 122.511 90.9423 124.058C93.3112 124.604 104.415 126.619 96.3498 126.619C89.5901 126.619 82.6551 127.981 77.6609 132.975C74.6547 135.981 73.5088 143.592 72.8226 147.537C72.0403 152.036 71.0819 156.955 72.6329 161.435C73.4987 163.937 79.5503 161.987 81.3607 161.625" stroke="#FF8C90" stroke-width="3" stroke-linecap="round"/>
<path d="M126.613 101.858C126.613 110.541 126.589 120.131 128.984 128.516C129.855 131.561 129.04 134.956 130.882 137.719" stroke="#FF8C90" stroke-width="3" stroke-linecap="round"/>
<path d="M150.52 101.005C151.874 112.521 155.642 124.42 155.642 136.011" stroke="#FF8C90" stroke-width="3" stroke-linecap="round"/>
<path d="M197 146H216" stroke="#FF8C90" stroke-width="3" stroke-linecap="round"/>
<path d="M195 149C195 151.934 196.822 153.971 197 157C197.086 158.466 202.905 157 204.5 157C206.877 157 210.163 157.596 212.444 156.944C214.065 156.481 215.5 151.75 217 151" stroke="#FF8C90" stroke-width="3" stroke-linecap="round"/>
<path d="M216 157C221.718 162.718 229.729 175.502 238.444 176C244.905 176.369 254.263 178.97 260.444 176.222C263.103 175.041 266.113 175.221 269 173.778C271.4 172.578 273.355 171.089 275.222 169.222C278.77 165.674 279.321 161.344 283.5 158C287.275 154.98 280.7 144.986 277.444 144.056C270.132 141.966 261.276 146 254 146C249.421 146 245.001 147 240.5 147C237.52 147 231.145 147.273 228.444 148.5C225.766 149.717 221.472 151 218.5 151C216.036 151 214.176 154 211 154" stroke="#FF8C90" stroke-width="3" stroke-linecap="round"/>
<path d="M245 152C240.795 152.467 231.229 160.652 231 165C230.531 173.909 246.938 172.811 253 171.944C257.294 171.331 262.178 169.642 265.945 167.444C268.123 166.174 269.396 160.507 267.445 158.556C265.073 156.184 258.745 156.635 255.556 156.056C251.632 155.342 248.135 155 244 155" stroke="#FF8C90" stroke-width="3" stroke-linecap="round"/>
<path d="M243 161C243 162.774 243.341 164.502 244.222 166C244.804 166.99 250.534 167.881 250.944 166.444C252.28 161.77 245.883 158.235 244 162" stroke="#FF8C90" stroke-width="3" stroke-linecap="round"/>
<path d="M231 180C231 185.983 228.685 191.158 231.778 197C233.669 200.573 236 194.494 236 192.778C236 189.067 237.131 186.792 238.056 183.556C238.199 183.053 238.532 190.389 237.944 192.444C237.086 195.448 234.525 180.566 237.944 184.556C239.801 186.722 241.012 191.874 244.056 192.889C247.656 194.089 249.181 183.873 249.778 185C250.464 186.297 254.597 195.958 256.778 193.778C257.43 193.125 257.151 190.111 258.611 190.111C261.82 190.111 263.163 193.772 265.778 194.778C271.658 197.039 267.041 184.702 270 183.222C271.219 182.613 274 186.022 274 183.5C274 178.696 272.782 182.5 267.889 182.944C263.008 183.388 257.906 183 253 183C250.561 183 251.497 184.832 249.222 185C246.592 185.195 243.661 185.621 241.056 186.056C239.194 186.366 240.247 188.079 237.556 188C235.18 187.93 233.012 187.006 231 186" stroke="#FF8C90" stroke-width="3" stroke-linecap="round"/>
<path d="M228 198C226.327 198.209 226 203.391 226 205" stroke="#FF8C90" stroke-width="3" stroke-linecap="round"/>
<path d="M227 197C233.725 196.44 240.218 196 247 196C249.601 196 259.414 195.482 261 193.5C263.173 190.784 274.266 194.97 276.778 195.778C281.352 197.248 288 197.415 288 202.5C288 205.103 286.771 213.217 283.5 213.944C274.267 215.996 263.453 212 254 212C246.969 212 234.122 215.244 230 207" stroke="#FF8C90" stroke-width="3" stroke-linecap="round"/>
<path d="M276 204C276 205.509 271.687 219.962 278 214C282.389 209.854 284.535 199.733 276 204Z" stroke="#FF8C90" stroke-width="3" stroke-linecap="round"/>
</svg>
