<svg width="300" height="300" viewBox="0 0 300 300" fill="none" xmlns="http://www.w3.org/2000/svg">
<path d="M25.8632 226.515C43.9767 225.93 58.363 218.3 69.2177 204.505C71.8257 201.191 75.2174 198.771 77.9456 195.588C80.2431 192.907 81.1842 189.672 83.0684 186.765C86.4413 181.561 89.1825 176.093 91.2271 170.163C96.6869 154.33 97.9734 137.658 101.852 121.496C103.361 115.211 105.959 109.044 106.785 102.617C107.502 97.0413 107.468 93.4751 110.343 88.6244C117.887 75.8935 130.467 70.6378 145.017 72.8764C151.766 73.9146 157.501 75.981 162.093 80.9401C169.203 88.6184 173.324 99.6669 177.414 109.211C184.066 124.73 189.179 141.69 194.016 157.878C196.209 165.216 197.329 172.072 201.369 178.701C204.646 184.079 208.426 188.394 212.895 192.789C221.799 201.547 231.349 209.661 240.454 218.214C245.765 223.203 251.399 228.638 257.72 232.397C266.18 237.427 277.654 236.667 287.129 237.614" stroke="#FF8C90" stroke-width="3" stroke-linecap="round"/>
<path d="M106.975 95.8818C99.0178 92.8978 85.6454 90.9817 78.4674 96.8305C72.2561 101.891 72.0779 107.104 75.4316 113.812C78.6327 120.214 84.2413 122.511 90.9425 124.058C93.3113 124.604 104.415 126.619 96.3499 126.619C89.5902 126.619 82.6553 127.981 77.661 132.975C74.6548 135.981 73.5089 143.592 72.8227 147.537C72.0404 152.036 71.082 156.955 72.633 161.435C73.4988 163.937 79.5504 161.987 81.3608 161.625" stroke="#FF8C90" stroke-width="3" stroke-linecap="round"/>
<path d="M126.613 101.858C126.613 110.541 126.589 120.131 128.984 128.516C129.854 131.561 129.04 134.956 130.882 137.719" stroke="#FF8C90" stroke-width="3" stroke-linecap="round"/>
<path d="M150.519 101.005C151.874 112.521 155.642 124.42 155.642 136.011" stroke="#FF8C90" stroke-width="3" stroke-linecap="round"/>
<path d="M98 181C107.319 181 115.682 176 125 176" stroke="#FF8C90" stroke-width="3" stroke-linecap="round"/>
<path d="M99 197C104.333 197 109.667 197 115 197C118.811 197 125.844 196.104 129 194" stroke="#FF8C90" stroke-width="3" stroke-linecap="round"/>
<path d="M112 168C112 180.847 114 193.95 114 206.5C114 213.338 113 220.48 113 227" stroke="#FF8C90" stroke-width="3" stroke-linecap="round"/>
<path d="M111 206C107.498 209.152 104.74 212.372 101.5 215.611C98.2596 218.852 98.1658 222.917 94 225" stroke="#FF8C90" stroke-width="3" stroke-linecap="round"/>
<path d="M115 204C118.02 204 122.376 207.376 124.5 209.5C126.11 211.11 126.929 214.136 128.611 215.444C130.192 216.674 132.356 216.904 134 218" stroke="#FF8C90" stroke-width="3" stroke-linecap="round"/>
<path d="M141 183C141.968 174.286 161.301 173 168 173" stroke="#FF8C90" stroke-width="3" stroke-linecap="round"/>
<path d="M153 165V195" stroke="#FF8C90" stroke-width="3" stroke-linecap="round"/>
<path d="M138 199C142.992 198.376 147.466 197 152.5 197C155.788 197 158.649 195 162 195C168.718 195 173.304 190 180 190" stroke="#FF8C90" stroke-width="3" stroke-linecap="round"/>
<path d="M149 206C149.606 212.062 152.489 218.368 154.5 224C155.747 227.491 157.876 229.628 159 233" stroke="#FF8C90" stroke-width="3" stroke-linecap="round"/>
<path d="M144 216C153.056 216 161.485 214.484 170.444 214C175.206 213.743 185.149 206.002 180.778 215.444C178.764 219.794 177.657 224.382 175.222 228.556C173.832 230.939 172.295 233.196 172 236C171.825 237.663 170.624 239 169 239C167.149 239 165.175 238.239 163.778 237.222C162.287 236.138 157.928 237 156 237" stroke="#FF8C90" stroke-width="3" stroke-linecap="round"/>
<path d="M221 77C221 81.2194 220.457 85.8088 221.056 90C221.479 92.9615 224.269 95.4602 224.944 98.5C226.63 106.086 227.267 111.939 226.222 119.778C225.799 122.954 226 126.243 226 129.444C226 130.35 226.484 134.926 225.944 132.5C224.088 124.145 223.503 111.792 228.944 105.444C231.66 102.276 235.851 101 240 101C244.58 101 243 109.368 243 112.5C243 118.425 244.347 123.493 238.778 127C234.606 129.626 228.772 129 224 129" stroke="#FF8C90" stroke-width="3" stroke-linecap="round"/>
</svg>
